<svg class="non-scaling-svg" xmlns="http://www.w3.org/2000/svg" viewBox="0 0 420 180" preserveAspectRatio="xMidYMid slice"><defs><style>.non-scaling-svg path, .non-scaling-svg line, .non-scaling-svg circle, .non-scaling-svg ellipse, .non-scaling-svg rect, .non-scaling-svg polygon, .non-scaling-svg polyline{ vector-effect: non-scaling-stroke; stroke-width: 1;}</style></defs><line x1="222.7169" y1="57.9661" x2="228.1264" y2="53.3273" fill="none" stroke="#dadce0" stroke-miterlimit="10"/><path d="M189.4443,70.9032c4.978,2.31,11.08-.1873,14.7855-4.2351,2.1626-2.3623,3.8116-5.3861,3.771-8.5885s-2.1378-6.489-5.2657-7.1771a5.8753,5.8753,0,0,0-5.7343,9.5489,9.2108,9.2108,0,0,0,4.075,2.5052,21.1635,21.1635,0,0,0,20.9726-4.4172l.6685-.5733" fill="none" stroke="#669df6" stroke-miterlimit="10"/><path d="M194.8986,102.2945c-4.8345,1.6475-11.1791,7.5645-18.1176,20.43-8.8548,16.4184-5.4339,26.4316,1.5,28.9933" fill="none" stroke="#669df6" stroke-miterlimit="10"/><path d="M134.1515,118.5541a34.2755,34.2755,0,0,1,5.7715,2.6882,41.7682,41.7682,0,0,1,3.7593,2.4537c8.8205,6.4233,15.7839,16.0115,23.1666,20.3813" fill="none" stroke="#669df6" stroke-miterlimit="10"/><path d="M210.7448,139.3663a45.1381,45.1381,0,0,0,8.6507-57.1546.8112.8112,0,0,1,1.28-.9791q.6433.6647,1.2634,1.3634a42.3237,42.3237,0,0,1-9.198,63.942l-3.7361-5.7068Q209.8877,140.1232,210.7448,139.3663Z" fill="#dadce0"/><path d="M211.4551,144.5735l-2.45-3.7423q.8826-.708,1.74-1.4649a45.1381,45.1381,0,0,0,8.6507-57.1546.8112.8112,0,0,1,1.28-.9791q.6433.6647,1.2634,1.3634a42.3675,42.3675,0,0,1,6.2311,9.2113" fill="none" stroke="#dadce0" stroke-miterlimit="10"/><path d="M228.17,91.8073a42.34,42.34,0,0,1-15.4291,54.7307l-1.2861-1.9645" fill="none" stroke="#3c4043" stroke-miterlimit="10"/><path d="M219.3955,82.2117a.8112.8112,0,0,1,1.28-.9791q.6433.6645,1.2634,1.3634a42.2331,42.2331,0,0,1,7.6174,12.3032l-4.5812,1.4936A44.816,44.816,0,0,0,219.3955,82.2117Z" fill="#3c4043" stroke="#3c4043" stroke-miterlimit="10"/><path d="M151.765,109.2637l-13.4042,13.5588a7.4676,7.4676,0,0,0-2.0046,3.7488l-.8766,4.2711a7.4679,7.4679,0,0,0,.1288,3.5313l3.3261,11.7748a.9463.9463,0,0,0,1.6975.2685l1.59-2.38a9.8266,9.8266,0,0,0,1.4737-7.3427l-1.5121-7.7431,6.4711-2.3652a29.4482,29.4482,0,0,0,10.5758-6.6984l2.5117-2.4788Z" fill="#dadce0"/><path d="M151.765,109.2637l9.9773,8.1452-2.5117,2.4787a29.4417,29.4417,0,0,1-7.4123,5.32l-3.13-12.832Z" fill="#3c4043"/><path d="M219.7,136.9132h0a26.9479,26.9479,0,0,0-9.8411-14.0548l-33.2515-24.55a38.95,38.95,0,0,1-5.8559-5.3268,3.9139,3.9139,0,0,1-.3111-4.7956l2.358-3.5a21.4211,21.4211,0,0,1,10.3489-8.127l.4283-.1581a16.4364,16.4364,0,0,0,9.7578-9.807l.7921-2.18A1.8894,1.8894,0,0,0,192.35,61.879H169.3045a12.5843,12.5843,0,0,0-10.738,6.0225L150.13,81.3025A28.8079,28.8079,0,0,0,145.8417,93.81h0a38.05,38.05,0,0,0,9.9919,29.6532l4.0969,4.4083a32.4538,32.4538,0,0,0,17.3288,9.7114v1.9406a17.3975,17.3975,0,0,0,9.1362,15.3109l2.9676,1.6012H175.8838a3.6748,3.6748,0,0,0-2.4221.8593,3.4339,3.4339,0,0,0-.8033,4.243l.1037.1921h42.0024L216.2,159.6A26.95,26.95,0,0,0,219.7,136.9132Z" fill="#dadce0" stroke="#dadce0" stroke-miterlimit="10"/><path d="M146.5716,105.8573a38.0461,38.0461,0,0,0,9.262,17.6062l4.0969,4.4083a32.4538,32.4538,0,0,0,17.3288,9.7114" fill="none" stroke="#3c4043" stroke-miterlimit="10"/><path d="M214.7645,161.73,216.2,159.6a26.95,26.95,0,0,0,3.5-22.6866h0a26.9479,26.9479,0,0,0-9.8411-14.0548l-33.2515-24.55a38.95,38.95,0,0,1-5.8559-5.3268,3.9139,3.9139,0,0,1-.3111-4.7956l2.358-3.5a21.4211,21.4211,0,0,1,10.3489-8.127l.4283-.1581a16.4364,16.4364,0,0,0,9.7578-9.807l.7921-2.18A1.8894,1.8894,0,0,0,192.35,61.879" fill="none" stroke="#3c4043" stroke-miterlimit="10"/><circle cx="172.6167" cy="69.0331" r="1.3085" fill="#3c4043"/><path d="M193.3329,66.5951l1.196-3.2917a1.0617,1.0617,0,0,0-.9978-1.4243h-5.0836l4.7469,4.7468Z" fill="#3c4043" stroke="#3c4043" stroke-miterlimit="10"/><path d="M162.9082,65.3558l6.3433,14.2355a2.846,2.846,0,0,1-2.6,4.0044h-8.1167a6.86,6.86,0,0,1-5.2905-2.4932h0" fill="none" stroke="#3c4043" stroke-miterlimit="10"/><path d="M171.5289,121.5776,157.37,161.73h-8.6056a3.7061,3.7061,0,0,1,1.3806-3.6327l3.2565-2.5054,6.2325-35.5856" fill="#dadce0"/><line x1="157.2604" y1="161.7303" x2="171.4192" y2="121.5776" fill="none" stroke="#3c4043" stroke-miterlimit="10"/><path d="M209.8589,122.8584l-33.2515-24.55a39.1417,39.1417,0,0,1-5.6924-5.1368,45.237,45.237,0,0,0-.9532,8.8131c-.0428,2.5553.08,5.1032.2811,7.6125a9.0121,9.0121,0,0,0,3.1546,6.6262,13.0678,13.0678,0,0,0,1.7429,1.2177c1.5358.9158,3.5116.8626,5.16,1.5723,4.0667,1.7512,4.8048,7.2268,7.4318,10.8068,3.5883,4.8895,10.7342,5.8364,16.82,3.8967a35.9988,35.9988,0,0,0,10.52-5.7824A26.94,26.94,0,0,0,209.8589,122.8584Z" fill="#3c4043" stroke="#3c4043" stroke-miterlimit="10"/><ellipse cx="183.2289" cy="70.6541" rx="4.43" ry="2.6062" fill="#fff"/><path d="M130.6483,117.6235a22.6146,22.6146,0,0,1,3.5032.9306" fill="none" stroke="#669df6" stroke-miterlimit="10"/><path d="M125.555,117.5887a11.7965,11.7965,0,0,1,2.6637-.2175" fill="none" stroke="#669df6" stroke-miterlimit="10"/><path d="M187.6588,70.6541s-12.21-2.6062-13.3507,29.4856q-.2057,1.6619-.3826,3.45c-2.6438,26.8009-27.005,38.2865-44.4578,30.149-10.4837-4.888-11.3706-12.988-5.7492-15.5611" fill="none" stroke="#669df6" stroke-miterlimit="10"/><path d="M166.8489,144.0773c9.492,5.6184,19.6773,2.61,35.3945-26.8415,4.575-8.5729.7126-17.6871-7.3448-14.9413" fill="none" stroke="#669df6" stroke-miterlimit="10"/><line x1="127.9653" y1="161.7303" x2="299.7939" y2="161.7303" fill="none" stroke="#3c4043" stroke-miterlimit="10"/><line x1="243.1349" y1="100.1659" x2="231.3489" y2="161.7955" fill="none" stroke="#3c4043" stroke-miterlimit="10"/><line x1="272.919" y1="100.1659" x2="284.744" y2="162" fill="none" stroke="#3c4043" stroke-miterlimit="10"/><line x1="236.4457" y1="135.144" x2="279.6081" y2="135.144" fill="none" stroke="#3c4043" stroke-miterlimit="10"/><path d="M288.3106,94.458H215.0723v1.6659A2.7762,2.7762,0,0,0,217.8485,98.9h70.0872Z" fill="#fff"/><polygon points="248.372 94.458 288.311 94.458 295.481 59.601 255.925 59.601 248.372 94.458" fill="#3c4043"/><path d="M288.674,92.6917l6.8065-33.0911H255.925l-2,9.229c-3.8459,17.686,3.8456,25.3041,21.8273,25.3041,1.4139,0,2.7846.3375,4.1614.3209h8.3968Z" fill="#fbc845"/><path d="M272.9913,55.3628h23.4692a3.3322,3.3322,0,0,1,3.2622,4.0114l-7.4985,36.0152A4.3747,4.3747,0,0,1,287.9357,98.9H217.8485a2.7762,2.7762,0,0,1-2.7762-2.7762V94.458h73.2383l8.15-39.0952" fill="none" stroke="#3c4043" stroke-miterlimit="10"/><line x1="269.1777" y1="55.3628" x2="271.5863" y2="55.3628" fill="none" stroke="#3c4043" stroke-miterlimit="10"/><polyline points="248.356 94.458 256.839 55.363 267.05 55.363" fill="none" stroke="#3c4043" stroke-miterlimit="10"/><line x1="295.5771" y1="59.6005" x2="256.0801" y2="59.6005" fill="none" stroke="#3c4043" stroke-miterlimit="10"/><line x1="253.7682" y1="94.458" x2="253.7682" y2="98.9001" fill="none" stroke="#3c4043" stroke-miterlimit="10"/><rect x="235.2263" y="98.9001" width="44.824" height="3.8426" rx="1.9213" fill="#3c4043"/><circle cx="285.0546" cy="96.8421" r="0.6631" fill="#3c4043"/><line x1="282.1692" y1="96.7087" x2="276.01" y2="96.7087" fill="none" stroke="#3c4043" stroke-miterlimit="10"/><polygon points="273.252 65.776 259.212 84.338 280.529 84.286 273.252 65.776" fill="none" stroke="#3c4043" stroke-miterlimit="10"/><ellipse cx="270.4103" cy="81.3532" rx="1.1345" ry="0.9429" transform="translate(17.2677 206.4887) rotate(-43.0485)" fill="none" stroke="#3c4043" stroke-miterlimit="10"/><line x1="270.9264" y1="78.5239" x2="272.2327" y2="71.3621" fill="none" stroke="#3c4043" stroke-miterlimit="10"/><path d="M178.281,151.7177c10.3289,3.8161,31.5722-7.0373,48.1527-3.7232,21.9379,4.3851,26.1867,12.9807,43.3738,12.9807,18.2563,0,29.5171-11.2432,19.3405-35.5373" fill="none" stroke="#669df6" stroke-miterlimit="10"/><polygon points="287.816 125.692 285.726 121.656 288.242 120.321 290.401 124.264 287.816 125.692" fill="#dadce0"/><path d="M290.3263,123.046a4.2679,4.2679,0,0,1,.3675,1.964,1.9689,1.9689,0,0,1-.3987,1.1959,1.7236,1.7236,0,0,1-2.0081.2763A4.7216,4.7216,0,0,1,286.7,125.02Z" fill="#3c4043"/></svg>