<svg width="164" height="32" viewBox="0 0 164 32" fill="none" xmlns="http://www.w3.org/2000/svg">
<g clip-path="url(#clip0)">
<path d="M131.653 13.4001C131.694 14.9027 131.427 16.3979 130.87 17.794C130.313 19.1902 129.477 20.458 128.413 21.5201C126.289 23.637 123.412 24.8257 120.413 24.8257C117.414 24.8257 114.538 23.637 112.413 21.5201C111.35 20.458 110.514 19.1902 109.957 17.794C109.399 16.3979 109.133 14.9027 109.173 13.4001C109.143 11.9066 109.414 10.4223 109.97 9.03615C110.527 7.65001 111.358 6.39058 112.413 5.3334C113.463 4.2804 114.709 3.44489 116.082 2.87479C117.455 2.30469 118.927 2.01123 120.413 2.01123C121.9 2.01123 123.372 2.30469 124.745 2.87479C126.117 3.44489 127.364 4.2804 128.413 5.3334C129.47 6.38966 130.302 7.64892 130.859 9.03529C131.415 10.4217 131.686 11.9064 131.653 13.4001ZM112 13.4001C111.962 14.5487 112.153 15.6935 112.563 16.7672C112.973 17.841 113.593 18.8222 114.387 19.6534C115.172 20.4468 116.106 21.0766 117.136 21.5064C118.166 21.9363 119.271 22.1576 120.387 22.1576C121.503 22.1576 122.608 21.9363 123.638 21.5064C124.667 21.0766 125.602 20.4468 126.387 19.6534C127.19 18.8275 127.817 17.8478 128.232 16.7732C128.647 15.6986 128.84 14.5512 128.8 13.4001C128.84 12.2469 128.647 11.0974 128.233 10.0206C127.818 8.94381 127.19 7.96179 126.387 7.1334C125.602 6.34004 124.667 5.71021 123.638 5.28037C122.608 4.85052 121.503 4.62919 120.387 4.62919C119.271 4.62919 118.166 4.85052 117.136 5.28037C116.106 5.71021 115.172 6.34004 114.387 7.1334C113.592 7.96662 112.972 8.95008 112.562 10.0262C112.152 11.1022 111.961 12.2493 112 13.4001V13.4001Z" fill="#5F6368"/>
<path d="M134.173 9.3333H136.84V11.44H136.973C137.448 10.6605 138.126 10.0245 138.933 9.59996C139.782 9.12662 140.735 8.87443 141.707 8.86663C142.482 8.81907 143.259 8.93451 143.987 9.2055C144.715 9.47649 145.378 9.89701 145.933 10.44C146.988 11.6856 147.518 13.2914 147.413 14.92V24.3333H144.6V15.1066C144.659 14.6087 144.603 14.104 144.438 13.6307C144.272 13.1573 144.001 12.7278 143.646 12.3746C143.29 12.0214 142.858 11.7537 142.384 11.5917C141.909 11.4298 141.404 11.3779 140.907 11.44C140.367 11.4326 139.833 11.5489 139.345 11.7801C138.858 12.0112 138.429 12.351 138.093 12.7733C137.343 13.6888 136.945 14.8431 136.973 16.0266V24.3066H134.16L134.173 9.3333Z" fill="#5F6368"/>
<path d="M156.92 24.8266C155.904 24.8556 154.894 24.6685 153.956 24.2778C153.019 23.887 152.175 23.3015 151.48 22.56C150.039 21.0157 149.268 18.9643 149.333 16.8533C149.264 14.7538 150.009 12.7089 151.413 11.1466C152.083 10.4012 152.907 9.81094 153.828 9.41713C154.749 9.02331 155.745 8.83543 156.747 8.86663C157.739 8.81491 158.732 8.98151 159.653 9.35471C160.575 9.7279 161.403 10.2986 162.08 11.0266C163.464 12.7228 164.151 14.8825 164 17.0666V17.3733H152.24C152.23 18.0312 152.355 18.6842 152.607 19.2919C152.859 19.8997 153.234 20.4492 153.707 20.9066C154.149 21.3424 154.674 21.6849 155.251 21.914C155.829 22.143 156.446 22.2538 157.067 22.24C157.949 22.2362 158.812 21.9841 159.557 21.5124C160.302 21.0408 160.899 20.3687 161.28 19.5733L163.787 20.7866C163.142 22.0143 162.173 23.0424 160.987 23.76C159.755 24.4817 158.348 24.8507 156.92 24.8266V24.8266ZM152.427 15.04H161.013C160.975 14.5436 160.837 14.0601 160.608 13.6181C160.379 13.1761 160.063 12.7845 159.68 12.4666C158.827 11.7451 157.729 11.3778 156.613 11.44C155.635 11.4275 154.687 11.7737 153.947 12.4133C153.162 13.0957 152.628 14.0199 152.427 15.04V15.04Z" fill="#5F6368"/>
<path d="M12.5867 24.8266C9.27829 24.8269 6.10281 23.5246 3.74728 21.2015C1.39174 18.8784 0.0455602 15.7213 0 12.4133C0.0455602 9.1052 1.39174 5.94808 3.74728 3.62498C6.10281 1.30188 9.27829 -0.000388872 12.5867 -7.51476e-05C14.1616 -0.0263004 15.7259 0.263425 17.1869 0.851981C18.648 1.44054 19.9763 2.31598 21.0933 3.42659L18.6667 5.81326C17.0384 4.23572 14.8537 3.36378 12.5867 3.38659C11.408 3.38825 10.2414 3.62384 9.15439 4.07972C8.06744 4.5356 7.08177 5.20268 6.25454 6.04232C5.42731 6.88195 4.77496 7.87743 4.33531 8.97105C3.89566 10.0647 3.67745 11.2347 3.69333 12.4133C3.67745 13.5918 3.89566 14.7618 4.33531 15.8555C4.77496 16.9491 5.42731 17.9446 6.25454 18.7842C7.08177 19.6238 8.06744 20.2909 9.15439 20.7468C10.2414 21.2027 11.408 21.4383 12.5867 21.4399C13.7476 21.4865 14.9054 21.2886 15.9849 20.8591C17.0645 20.4295 18.0417 19.778 18.8533 18.9466C19.9319 17.7683 20.5804 16.26 20.6933 14.6666H12.5867V11.2933H24C24.1251 11.9928 24.1831 12.7027 24.1733 13.4133C24.2877 16.3622 23.2336 19.2372 21.24 21.4133C20.1207 22.5613 18.7708 23.4591 17.2792 24.0474C15.7876 24.6358 14.1883 24.9013 12.5867 24.8266V24.8266Z" fill="#4285F4"/>
<path d="M41.8266 16.8266C41.8703 17.8878 41.699 18.9469 41.323 19.9402C40.947 20.9336 40.3741 21.8406 39.6387 22.6069C38.9033 23.3732 38.0205 23.983 37.0435 24.3995C36.0665 24.816 35.0153 25.0307 33.9532 25.0307C32.8911 25.0307 31.84 24.816 30.863 24.3995C29.886 23.983 29.0032 23.3732 28.2678 22.6069C27.5324 21.8406 26.9595 20.9336 26.5835 19.9402C26.2075 18.9469 26.0362 17.8878 26.0799 16.8266C26.0362 15.7654 26.2075 14.7064 26.5835 13.713C26.9595 12.7197 27.5324 11.8126 28.2678 11.0463C29.0032 10.28 29.886 9.6703 30.863 9.25379C31.84 8.83727 32.8911 8.62256 33.9532 8.62256C35.0153 8.62256 36.0665 8.83727 37.0435 9.25379C38.0205 9.6703 38.9033 10.28 39.6387 11.0463C40.3741 11.8126 40.947 12.7197 41.323 13.713C41.699 14.7064 41.8703 15.7654 41.8266 16.8266V16.8266ZM38.3732 16.8266C38.4206 16.2164 38.3414 15.603 38.1404 15.0249C37.9394 14.4468 37.6211 13.9165 37.2054 13.4673C36.7897 13.018 36.2857 12.6596 35.7249 12.4145C35.1641 12.1693 34.5586 12.0428 33.9466 12.0428C33.3345 12.0428 32.7291 12.1693 32.1683 12.4145C31.6075 12.6596 31.1034 13.018 30.6877 13.4673C30.272 13.9165 29.9537 14.4468 29.7528 15.0249C29.5518 15.603 29.4725 16.2164 29.5199 16.8266C29.4725 17.4368 29.5518 18.0502 29.7528 18.6284C29.9537 19.2065 30.272 19.7368 30.6877 20.186C31.1034 20.6352 31.6075 20.9937 32.1683 21.2388C32.7291 21.4839 33.3345 21.6105 33.9466 21.6105C34.5586 21.6105 35.1641 21.4839 35.7249 21.2388C36.2857 20.9937 36.7897 20.6352 37.2054 20.186C37.6211 19.7368 37.9394 19.2065 38.1404 18.6284C38.3414 18.0502 38.4206 17.4368 38.3732 16.8266V16.8266Z" fill="#EA4335"/>
<path d="M59.4667 16.8266C59.5104 17.8878 59.3391 18.9469 58.9631 19.9402C58.5871 20.9336 58.0142 21.8406 57.2788 22.6069C56.5434 23.3732 55.6607 23.983 54.6836 24.3995C53.7066 24.816 52.6555 25.0307 51.5934 25.0307C50.5313 25.0307 49.4801 24.816 48.5031 24.3995C47.5261 23.983 46.6434 23.3732 45.908 22.6069C45.1725 21.8406 44.5996 20.9336 44.2236 19.9402C43.8477 18.9469 43.6764 17.8878 43.72 16.8266C43.6764 15.7654 43.8477 14.7064 44.2236 13.713C44.5996 12.7197 45.1725 11.8126 45.908 11.0463C46.6434 10.28 47.5261 9.6703 48.5031 9.25379C49.4801 8.83727 50.5313 8.62256 51.5934 8.62256C52.6555 8.62256 53.7066 8.83727 54.6836 9.25379C55.6607 9.6703 56.5434 10.28 57.2788 11.0463C58.0142 11.8126 58.5871 12.7197 58.9631 13.713C59.3391 14.7064 59.5104 15.7654 59.4667 16.8266V16.8266ZM56.0267 16.8266C56.0741 16.2164 55.9948 15.603 55.7939 15.0249C55.5929 14.4468 55.2746 13.9165 54.8589 13.4673C54.4432 13.018 53.9391 12.6596 53.3783 12.4145C52.8175 12.1693 52.2121 12.0428 51.6 12.0428C50.988 12.0428 50.3826 12.1693 49.8218 12.4145C49.261 12.6596 48.7569 13.018 48.3412 13.4673C47.9255 13.9165 47.6072 14.4468 47.4062 15.0249C47.2053 15.603 47.126 16.2164 47.1734 16.8266C47.126 17.4368 47.2053 18.0502 47.4062 18.6284C47.6072 19.2065 47.9255 19.7368 48.3412 20.186C48.7569 20.6352 49.261 20.9937 49.8218 21.2388C50.3826 21.4839 50.988 21.6105 51.6 21.6105C52.2121 21.6105 52.8175 21.4839 53.3783 21.2388C53.9391 20.9937 54.4432 20.6352 54.8589 20.186C55.2746 19.7368 55.5929 19.2065 55.7939 18.6284C55.9948 18.0502 56.0741 17.4368 56.0267 16.8266V16.8266Z" fill="#FBBC04"/>
<path d="M76.68 9.33326V23.6799C76.68 29.5733 73.2 31.9999 69.08 31.9999C67.5641 32.0075 66.0804 31.5623 64.819 30.7214C63.5577 29.8805 62.5761 28.6821 62 27.2799L65.0533 25.9466C65.3637 26.7641 65.9092 27.4714 66.6211 27.9792C67.333 28.487 68.1793 28.7726 69.0533 28.7999C71.72 28.7999 73.32 27.1599 73.32 24.1066V22.9599H73.2C72.673 23.5483 72.0245 24.0152 71.2993 24.3283C70.5742 24.6414 69.7896 24.7932 69 24.7733C66.8783 24.7733 64.8434 23.9304 63.3431 22.4301C61.8429 20.9298 61 18.895 61 16.7733C61 14.6515 61.8429 12.6167 63.3431 11.1164C64.8434 9.61612 66.8783 8.77326 69 8.77326C69.7995 8.76476 70.5913 8.9296 71.3209 9.25645C72.0506 9.5833 72.7008 10.0644 73.2267 10.6666H73.3333V9.33326H76.68ZM73.5867 16.8799C73.6375 16.2782 73.567 15.6725 73.3791 15.0986C73.1913 14.5247 72.8901 13.9945 72.4934 13.5393C72.0966 13.0841 71.6125 12.7132 71.0696 12.4488C70.5268 12.1844 69.9363 12.0317 69.3333 11.9999C68.7197 12.0238 68.117 12.1695 67.5602 12.4287C67.0035 12.6879 66.5039 13.0553 66.0907 13.5095C65.6774 13.9637 65.3587 14.4957 65.1531 15.0743C64.9476 15.653 64.8592 16.2668 64.8933 16.8799C64.8647 17.4878 64.9574 18.0953 65.1659 18.667C65.3744 19.2387 65.6946 19.7632 66.1079 20.21C66.5211 20.6567 67.0191 21.0168 67.5729 21.2691C68.1266 21.5215 68.7251 21.6611 69.3333 21.6799C69.9327 21.655 70.5209 21.5092 71.0625 21.2513C71.6042 20.9935 72.0881 20.6288 72.4853 20.1793C72.8826 19.7298 73.1849 19.2046 73.3741 18.6354C73.5634 18.0661 73.6357 17.4645 73.5867 16.8666V16.8799Z" fill="#4285F4"/>
<path d="M82.8267 0.853271V24.3466H79.3201V0.853271H82.8267Z" fill="#34A853"/>
<path d="M96.6265 19.4667L99.2932 21.28C98.566 22.3803 97.575 23.2812 96.4106 23.9006C95.2462 24.5201 93.9454 24.8384 92.6265 24.8267C91.5814 24.8381 90.5449 24.6376 89.5794 24.2372C88.614 23.8368 87.7397 23.2449 87.0095 22.4972C86.2792 21.7494 85.7081 20.8615 85.3306 19.8868C84.9531 18.9122 84.7771 17.8712 84.8132 16.8267C84.8132 12.08 88.1199 8.82666 92.2399 8.82666C93.763 8.87107 95.2358 9.38208 96.459 10.2906C97.6823 11.1991 98.5972 12.4614 99.0799 13.9067L99.4399 14.8267L88.7732 19.24C89.0933 19.9906 89.6352 20.6253 90.3264 21.0591C91.0175 21.4928 91.8248 21.7048 92.6399 21.6667C93.4389 21.6815 94.2278 21.486 94.9275 21.0999C95.6271 20.7138 96.2131 20.1505 96.6265 19.4667V19.4667ZM88.2532 16.5867L95.3865 13.6267C95.1052 13.0967 94.6752 12.6604 94.1494 12.3714C93.6236 12.0824 93.0247 11.9533 92.4265 12C91.8509 12.0256 91.2859 12.1648 90.7642 12.4095C90.2424 12.6542 89.7742 12.9995 89.3864 13.4258C88.9986 13.852 88.6988 14.3507 88.5043 14.8931C88.3099 15.4356 88.2245 16.0111 88.2532 16.5867Z" fill="#EA4335"/>
</g>
<defs>
<clipPath id="clip0">
<rect width="164" height="32" fill="white"/>
</clipPath>
</defs>
</svg>
